<?xml version="1.0" encoding="UTF-8" standalone="no"?>
<!-- Created with Inkscape (http://www.inkscape.org/) -->

<svg
   xmlns:dc="http://purl.org/dc/elements/1.1/"
   xmlns:cc="http://creativecommons.org/ns#"
   xmlns:rdf="http://www.w3.org/1999/02/22-rdf-syntax-ns#"
   xmlns:svg="http://www.w3.org/2000/svg"
   xmlns="http://www.w3.org/2000/svg"
   xmlns:sodipodi="http://sodipodi.sourceforge.net/DTD/sodipodi-0.dtd"
   xmlns:inkscape="http://www.inkscape.org/namespaces/inkscape"
   width="50"
   height="50"
   viewBox="0 0 13.229167 13.229167"
   version="1.1"
   id="svg33"
   inkscape:version="0.92.3 (2405546, 2018-03-11)"
   sodipodi:docname="UFO.svg"
   inkscape:export-filename="C:\Users\Administrator\Desktop\Vince\Training\Space\images\UFO.png"
   inkscape:export-xdpi="96"
   inkscape:export-ydpi="96">
  <defs
     id="defs27" />
  <sodipodi:namedview
     id="base"
     pagecolor="#ffffff"
     bordercolor="#666666"
     borderopacity="1.0"
     inkscape:pageopacity="0.0"
     inkscape:pageshadow="2"
     inkscape:zoom="11.2"
     inkscape:cx="19.594381"
     inkscape:cy="27.244242"
     inkscape:document-units="mm"
     inkscape:current-layer="layer1"
     showgrid="false"
     units="px"
     inkscape:pagecheckerboard="true"
     inkscape:window-width="1920"
     inkscape:window-height="1003"
     inkscape:window-x="-9"
     inkscape:window-y="-9"
     inkscape:window-maximized="1" />
  <metadata
     id="metadata30">
    <rdf:RDF>
      <cc:Work
         rdf:about="">
        <dc:format>image/svg+xml</dc:format>
        <dc:type
           rdf:resource="http://purl.org/dc/dcmitype/StillImage" />
        <dc:title></dc:title>
      </cc:Work>
    </rdf:RDF>
  </metadata>
  <g
     inkscape:label="Layer 1"
     inkscape:groupmode="layer"
     id="layer1"
     transform="translate(0,-283.77083)">
    <ellipse
       style="fill:#ffff00;stroke-width:0.48681459"
       id="path35"
       cx="6.6618304"
       cy="290.22006"
       rx="6.5673361"
       ry="3.3309152" />
    <path
       style="fill:#ffff00;stroke-width:0.26458332"
       id="path39"
       d="m 3.1249724,292.68769 c -0.3311948,0.53178 -0.6294281,1.08323 -0.9294238,1.63295 -0.375237,0.70243 -0.7311143,1.41496 -1.0786697,2.13142 -0.065876,0.1345 -0.12964471,0.26997 -0.18919571,0.40738 -0.031064,0.0717 -0.040777,0.0971 -0.087778,0.15912 -0.10191277,-0.0428 -0.21845291,-0.0606 -0.30573832,-0.12839 -0.0258204,-0.0201 0.00814,-0.065 0.0159075,-0.0968 0.005674,-0.0232 0.0442394,-0.12089 0.0528855,-0.1431 0.0367559,-0.0944 0.0213299,-0.0559 0.062622,-0.15359 0.0488349,-0.12084 0.10492382,-0.23851 0.15771722,-0.35761 0.026617,-0.0667 0.047469,-0.1354 0.073163,-0.20242 0.00686,-0.0222 0.01607,-0.0436 0.024261,-0.0653 0.088713,-0.23433 0.42011271,-0.10887 0.33139991,0.12546 v 0 c -0.00843,0.0222 -0.017794,0.044 -0.024793,0.0667 -0.02787,0.0727 -0.049883,0.14747 -0.080149,0.21933 -0.052095,0.11723 -0.1071758,0.23315 -0.15533101,0.35211 -0.038785,0.0913 -0.022306,0.0506 -0.058513,0.14346 -0.00828,0.0212 -0.016559,0.0424 -0.024752,0.0637 -0.00536,0.0139 -0.00613,0.0306 -0.015923,0.0418 -0.00405,0.005 -0.00331,-0.0119 -0.00496,-0.0178 -0.10110982,-0.031 -0.20221965,-0.062 -0.30332948,-0.093 -0.007314,0.011 -0.0132993,0.023 -0.0219427,0.033 -0.005264,0.006 0.00832,-0.0138 0.0116705,-0.0211 0.0101904,-0.0222 0.0191725,-0.045 0.0289163,-0.0675 0.0614903,-0.14165 0.12708213,-0.28141 0.19504548,-0.42007 0.35004331,-0.72155 0.70845521,-1.43913 1.08644051,-2.14651 0.3081019,-0.56454 0.6134071,-1.13181 0.956989,-1.67582 0.1503391,-0.20045 0.4338214,0.0122 0.2834822,0.21261 z"
       inkscape:connector-curvature="0" />
    <path
       id="path41"
       transform="matrix(0.26458333,0,0,0.26458333,0,283.77083)"
       style="fill:#ffff00;stroke-width:0.99999994"
       d="m 35.626953,32.355469 c -0.517276,-0.02068 -0.968162,0.606745 -0.501953,1.142578 0.832553,1.159748 1.630421,2.343886 2.425781,3.529297 1.536396,2.353171 3.111271,4.6811 4.669922,7.019531 0.496562,0.738228 0.989706,1.477976 1.488281,2.214844 0.0019,0.227297 0.124736,0.444541 0.382813,0.572265 0.125194,0.186565 0.252795,0.371338 0.376953,0.558594 0.02307,0.08313 0.04743,0.165531 0.08984,0.242188 0.08829,0.176844 0.152711,0.363882 0.232422,0.544922 0.118227,0.244648 0.227767,0.497708 0.402343,0.708984 0.05575,0.05037 0.0072,0.01105 0.08203,0.09375 8.88e-4,9.82e-4 -9.39e-4,9.21e-4 0,0.002 0.01492,0.01641 -0.01448,-0.0138 0.01563,0.01758 -0.005,-0.0039 -0.0032,-0.02277 -0.0098,-0.02344 0.03353,-0.02926 0.08598,-0.07951 0.08984,-0.07617 0.0279,-0.01766 0.05351,-0.04171 0.08398,-0.05469 -0.127146,-0.267924 0.03853,-0.614071 0.560547,-0.591797 v 0.0059 c 0.132753,0.006 0.287711,-0.02211 0.443359,-0.04687 0.03091,-0.01399 0.0624,-0.02439 0.09375,-0.03711 -0.132319,-0.225833 -0.269454,-0.449007 -0.40039,-0.675781 -0.146507,-0.226542 -0.302555,-0.446744 -0.451172,-0.671875 -0.01147,-0.04835 -0.02283,-0.09688 -0.03711,-0.144531 -0.07544,-0.209386 -0.220059,-0.371315 -0.347656,-0.541016 -0.07408,-0.129864 -0.172068,-0.231401 -0.285156,-0.314453 -0.566512,-0.840802 -1.129199,-1.684332 -1.695312,-2.52539 -1.559434,-2.339566 -3.136634,-4.667179 -4.673829,-7.021485 -0.826337,-1.231483 -1.650981,-2.465397 -2.527343,-3.662109 v -0.002 C 35.979363,32.44052 35.799378,32.362362 35.626953,32.355469 Z m 10.199219,16.30664 c -0.02268,0.02646 -0.09361,0.09923 -0.06836,0.07617 0.03438,-0.03122 0.004,-0.002 0.02734,-0.02344 0.01342,-0.01778 0.02722,-0.03528 0.04102,-0.05273 z" />
    <path
       id="path46"
       transform="matrix(0.26458333,0,0,0.26458333,0,283.77083)"
       style="fill:#ffff00;stroke-width:0.99999994"
       d="m 16.595703,34.857422 c -0.250703,-0.02128 -0.516929,0.09748 -0.669922,0.417969 -0.06305,0.179754 -0.197531,0.337235 -0.203125,0.539062 -0.04383,0.217172 -0.06565,0.434392 -0.05469,0.65625 -8.81e-4,0.269405 -0.0022,0.539114 0,0.808594 0.0049,0.342879 0.01185,0.687501 0.07617,1.025391 0.07457,0.356522 0.193803,0.699663 0.289062,1.050781 0.06171,0.256894 0.150404,0.531489 0.154297,0.794922 -0.0089,0.09335 -0.05184,0.169937 -0.0957,0.251953 -0.0963,0.144 -0.229036,0.252414 -0.363281,0.359375 -0.153389,0.156283 -0.325753,0.291547 -0.490235,0.435547 -0.184194,0.158815 -0.357326,0.326458 -0.517578,0.509765 -0.186392,0.205153 -0.384409,0.397903 -0.603515,0.56836 -0.686867,0.483288 -1.433206,0.869587 -2.189454,1.232421 -1.718822,0.849109 -3.4234115,1.725336 -5.1113278,2.634766 -1.2794876,0.684888 -2.5794311,1.350482 -3.7832031,2.164063 -0.8030697,0.501921 -0.092132,1.63864 0.7109375,1.136718 1.1783086,-0.797858 2.4499985,-1.448425 3.703125,-2.11914 1.6750749,-0.902551 3.3684454,-1.772551 5.0742184,-2.615235 0.626414,-0.298227 1.232422,-0.631563 1.820313,-0.998046 0.02307,-0.04293 0.032,-0.07814 0.08398,-0.142579 0.02537,-0.03151 0.07245,-0.0876 0.113281,-0.123047 0.01749,-0.04848 0.03203,-0.09863 0.05859,-0.142578 0.02736,-0.04535 0.08355,-0.07076 0.134766,-0.08398 0.02717,-0.0076 -0.0826,0.07504 -0.05664,0.06445 0.03005,-0.01134 0.04736,-0.0453 0.07031,-0.06836 0.163007,-0.205607 -0.012,0.02219 0.167968,-0.236328 0.01036,-0.01512 0.02665,-0.02628 0.03516,-0.04102 0.02188,-0.04082 0.03228,-0.08846 0.05469,-0.128906 0.151676,-0.274016 0.05986,-0.270602 0.181641,-0.267578 0.061,-0.03402 0.01686,-0.0024 0.07226,-0.132813 0.08851,-0.207874 0.163804,-0.347149 0.285157,-0.53125 0.03095,-0.06161 0.05795,-0.123877 0.0918,-0.183594 0.03095,-0.0548 0.06796,-0.108628 0.109375,-0.15625 0.004,-0.0038 0.012,0.0155 0.01563,0.01172 0.0654,-0.08504 0.02236,-0.23672 0.09766,-0.30664 0.07232,-0.113527 0.121379,-0.215623 0.203125,-0.292969 0.0022,-0.170702 0.03463,-0.316687 0.191406,-0.460938 0.01383,-0.02967 0.03201,-0.05076 0.05078,-0.07227 0.0011,-0.01822 -9.82e-4,-0.03663 0.002,-0.05469 0.0133,-0.08164 0.131247,-0.263495 0.166015,-0.328125 0.222325,-0.412886 0.111895,-0.22251 0.238281,-0.427734 0.015,-0.03845 0.02712,-0.0784 0.04102,-0.117188 0.009,-0.0035 0.01828,-0.0063 0.02734,-0.0098 0.07537,-0.15702 0.259685,-0.54655 0.404297,-0.498047 0.05725,0.01922 0.107844,0.05137 0.158203,0.08398 -0.0017,-0.0071 -0.0022,-0.0144 -0.0039,-0.02148 -0.08007,-0.338835 -0.212887,-0.663812 -0.279297,-1.00586 -0.04417,-0.256478 -0.04533,-0.51769 -0.04883,-0.777343 -0.002,-0.261695 -8.56e-4,-0.523613 0,-0.785157 0.0048,-0.09827 -0.0057,-0.196654 0,-0.294921 0.002,-0.03439 0.02043,-0.06559 0.02734,-0.09961 0.04002,-0.182929 -0.0053,-0.01529 0.09961,-0.226562 0.254988,-0.534237 -0.121225,-0.960623 -0.539063,-0.996094 z m 0.595703,4.164062 c 0.07594,-0.0771 -0.145973,0.07939 -0.132812,0.105469 0.0015,0.0029 0.0044,0.0049 0.0059,0.0078 0.04264,-0.03723 0.08724,-0.0729 0.126953,-0.113282 z m 0.320313,1.146485 c -0.01438,0.06749 -0.0212,0.131941 -0.05859,0.208984 v 0.002 c -0.01502,0.03094 -0.02802,0.06277 -0.04297,0.09375 9.72e-4,0.07823 0.002,0.156625 0,0.234375 0.03538,-0.101237 0.07156,-0.201576 0.09375,-0.308593 0.0092,-0.07696 0.0073,-0.15421 0.0078,-0.230469 z m -1.210938,0.328125 c -0.0044,0.0083 -0.01133,0.01889 -0.01367,0.02539 0.0032,0.05291 0.0037,0.210738 0.0098,0.158204 0.0071,-0.06103 0.005,-0.12197 0.0039,-0.183594 z m -1.857422,3.070312 c -0.01675,-0.02993 -0.02891,0.03904 -0.0332,0.101563 0.01681,-0.01062 0.03402,-0.02055 0.05078,-0.03125 0.0022,-0.0044 0.0041,-0.009 0.0059,-0.01367 -0.0089,-0.01845 -0.0134,-0.03869 -0.02344,-0.05664 z" />
    <path
       id="path48"
       transform="matrix(0.26458333,0,0,0.26458333,0,283.77083)"
       style="fill:#ffff00;stroke-width:0.99999994"
       d="m 29.037109,36.53125 c -0.515949,0.04241 -0.887309,0.722151 -0.359375,1.197266 0.663219,0.684661 1.344335,1.353535 1.988282,2.05664 0.202803,0.221443 0.397085,0.450522 0.595703,0.675782 1.344909,1.586796 2.512932,3.313896 3.679687,5.033203 0.756866,1.098557 1.542447,2.178083 2.275391,3.292968 0.260736,0.352177 0.463551,0.744834 0.746094,1.080079 0.25833,0.269858 0.593666,0.34413 0.951171,0.355468 0.280003,0.0038 0.559857,-0.002 0.839844,-0.0039 0.330063,0.0023 0.657623,-0.04568 0.986328,-0.06836 0.293621,-0.0076 0.585198,-0.04449 0.873047,-0.101563 0.20679,-0.05594 0.404741,-0.137859 0.617188,-0.171875 0.218955,-0.02003 0.426754,-0.09124 0.638672,-0.144531 0.236118,-0.06236 0.460337,-0.160679 0.683593,-0.257813 0.15769,-0.03968 0.317785,-0.06364 0.476563,-0.09766 0.181069,-0.06841 0.375956,-0.05452 0.566406,-0.05664 0.214949,-7.93e-4 0.42959,6.69e-4 0.644531,0.002 0.006,0.0038 0.02596,0.0063 0.01953,0.0078 -0.178318,-0.0038 0.04554,-0.0033 -0.01172,0.01563 -0.01296,0.0038 -0.04587,-0.02306 -0.03906,-0.01172 0.0097,0.0189 0.03377,0.02186 0.05078,0.0332 0.0083,0.0049 0.01705,0.0089 0.02539,0.01367 0.0099,-0.013 0.0194,-0.02608 0.0293,-0.03906 0.01904,-0.19131 0.0301,-0.356841 -0.0332,-0.363281 -0.106856,0.09325 -0.276046,0.254624 -0.171875,0.128906 0.08808,-0.106376 0.137878,-0.132365 0.171875,-0.128906 0.03353,-0.02926 0.08598,-0.07951 0.08984,-0.07617 0.0279,-0.01766 0.05351,-0.04171 0.08398,-0.05469 -0.126959,-0.26753 0.03839,-0.612958 0.558594,-0.591797 -0.0032,-0.002 -0.0066,-0.0039 -0.0098,-0.0059 -0.09078,-0.04233 -0.170292,-0.104973 -0.261718,-0.148438 -0.153177,-0.07257 -0.325914,-0.105722 -0.494141,-0.113281 -0.222784,-0.0013 -0.445166,-0.003 -0.667969,-0.002 -0.282387,0.0034 -0.574635,0.001 -0.845703,0.08984 -0.240397,0.05405 -0.487569,0.07827 -0.716797,0.175781 -0.157017,0.06879 -0.31301,0.141012 -0.478516,0.1875 -0.176054,0.04498 -0.349114,0.107929 -0.53125,0.123047 -0.227077,0.03968 -0.450809,0.09578 -0.666015,0.179688 -0.230188,0.05065 -0.466048,0.06679 -0.701172,0.07812 -0.298896,0.0223 -0.596579,0.06389 -0.896484,0.06445 -0.265565,0.0038 -0.531288,0.0075 -0.796875,0.0078 -0.04945,-5.31e-4 -0.03471,0.0037 -0.04297,0.0059 -0.04311,-0.06208 -0.09233,-0.128102 -0.117188,-0.166016 C 38.639311,48.506293 38.486589,48.28272 38.335938,48.058594 37.599079,46.938493 36.812186,45.85332 36.050781,44.75 34.852073,42.983865 33.64978,41.210101 32.265625,39.582031 c -0.2104,-0.238034 -0.416262,-0.47856 -0.630859,-0.71289 -0.666791,-0.727862 -1.372265,-1.421731 -2.0625,-2.126953 v -0.0098 C 29.396288,36.574041 29.209092,36.517114 29.037109,36.53125 Z m 16.978516,11.726562 v 0.0039 c 0.0017,7.9e-5 0.0041,-6.8e-5 0.0059,0 -0.002,-0.0012 -0.0039,-0.0027 -0.0059,-0.0039 z m -0.189453,0.404297 c -0.02268,0.02646 -0.09361,0.09923 -0.06836,0.07617 0.03438,-0.03122 0.004,-0.002 0.02734,-0.02344 0.01342,-0.01778 0.02722,-0.03528 0.04102,-0.05273 z" />
    <path
       id="path50"
       transform="matrix(0.26458333,0,0,0.26458333,0,283.77083)"
       style="fill:#ffff00;stroke-width:0.08928572"
       d="m 11.158203,34.839844 c -0.06655,0.06655 -1.8649161,3.272589 -2.6796874,4.777344 -1.0252639,1.8935 -3.8671875,7.504314 -3.8671875,7.634765 0,0.04375 0.051897,0.03878 0.1132813,-0.0098 0.1828265,-0.144595 4.5200841,-2.427174 6.5390626,-3.441407 2.37906,-1.195121 2.597235,-1.336786 3.839844,-2.511719 0.796536,-0.753154 1.027392,-1.023331 1.027343,-1.203124 -3.6e-5,-0.127462 -0.104583,-0.607146 -0.230468,-1.066407 -0.177992,-0.649341 -0.231241,-1.07279 -0.244141,-1.90039 l -0.01758,-1.064453 -0.3125,-0.08008 c -0.171875,-0.04424 -0.793528,-0.2019 -1.382813,-0.351562 -0.589286,-0.149662 -1.45318,-0.392648 -1.917968,-0.539063 -0.464788,-0.14641 -0.855128,-0.2562 -0.867188,-0.24414 z" />
    <path
       style="fill:#ffff00;stroke-width:0.08928572"
       d="M 36.62744,45.513901 C 33.303164,40.703403 32.587743,39.780159 30.575135,37.70346 l -0.872721,-0.900512 1.271877,-0.155253 c 1.481896,-0.18089 3.29791,-0.502055 4.604916,-0.814388 0.507279,-0.121223 0.935423,-0.220406 0.95143,-0.220406 0.05175,0 7.094938,10.59833 7.157759,10.770739 0.03342,0.09172 0.193775,0.316536 0.356345,0.499593 0.239022,0.269143 0.567497,0.858006 0.567497,1.017357 0,0.01856 -0.110491,0.03443 -0.245535,0.03527 -0.240973,0.0015 -0.693833,0.114639 -2.299107,0.574403 -0.588017,0.168412 -1.116015,0.245169 -1.968335,0.286145 l -1.164764,0.056 z"
       id="path52"
       inkscape:connector-curvature="0"
       transform="matrix(0.26458333,0,0,0.26458333,0,283.77083)" />
    <path
       style="fill:#ffff00;stroke-width:0.26458332"
       id="path78"
       d="m 4.4666521,293.8935 c 0.096351,-0.001 0.1924357,-0.0116 0.2886821,-0.0169 0.078447,-0.006 0.1582264,6.9e-4 0.2354223,-0.0169 0.078009,-0.0192 0.1578277,-0.0278 0.2377892,-0.0334 0.092277,-0.008 0.1842985,0.004 0.2762412,0.0106 0.119009,-0.008 0.2367857,-0.0278 0.3537728,-0.0504 0.132045,-0.0299 0.2647807,-0.0557 0.3966752,-0.0862 0.093038,-0.025 0.1891871,-0.0306 0.2841773,-0.0429 0.080037,-0.008 0.1573686,-0.0293 0.2347095,-0.0501 0.097693,-0.0281 0.1988034,-0.0372 0.2998663,-0.0422 0.087314,-0.003 0.174711,-0.003 0.2620714,-0.003 0.085691,1.9e-4 0.1713831,3.2e-4 0.2570747,4e-4 0.073227,5e-4 0.146418,-0.002 0.2194409,0.004 0.2055577,0.0296 0.1531887,0.07 0.054177,0.36394 -0.00161,0.005 -0.078752,0.009 -0.084009,0.009 -0.074546,0.003 -0.1491559,0.002 -0.2237333,0.002 -0.061577,-2.3e-4 -0.1231537,-3.4e-4 -0.1847307,-3.9e-4 -0.060239,-5e-5 -0.1204778,-5e-5 -0.1807168,-5e-5 -0.05348,0 -0.1069596,0 -0.1604396,0 -0.079121,0.003 -0.15601,-0.0156 -0.2303251,-0.0409 -0.052451,-0.0173 -0.1043628,-0.0359 -0.1567106,-0.0535 -0.076595,-0.0338 -0.1570516,-0.0559 -0.2375527,-0.0782 -0.1026932,-0.0272 -0.206951,-0.0449 -0.3126139,-0.055 -0.098348,-0.006 -0.1972516,-0.0121 -0.2957505,-0.007 -0.088296,0.006 -0.1764725,0.0121 -0.2634324,0.0291 -0.066392,0.014 -0.1253381,0.045 -0.1853043,0.0752 -0.07078,0.0385 -0.1403625,0.079 -0.211096,0.11757 -0.062663,0.0247 -0.1174271,0.0625 -0.177855,0.0916 -0.090278,0.0383 -0.1909723,0.0464 -0.2736086,-0.0177 -0.020008,-0.0155 -0.033443,-0.038 -0.050164,-0.0571 -0.040202,-0.0683 -0.043759,-0.14449 -0.044827,-0.22129 0.0022,-0.0254 -0.00638,-0.0475 -0.014833,-0.074 -0.015028,-0.0385 -0.032385,-0.0759 -0.04783,-0.11429 -0.036367,-0.0741 -0.048784,-0.15909 -0.00529,-0.23491 0.014393,-0.0251 0.03881,-0.0429 0.058215,-0.0644 0.025191,-0.0116 0.048346,-0.0295 0.075577,-0.0347 0.1122728,-0.0214 0.2171481,0.0459 0.246988,0.15467 0.00546,0.0199 0.00663,0.0407 0.00994,0.0611 -0.00335,0.10366 -0.047017,0.17117 -0.1217123,0.23827 -0.033599,0.0313 -0.077217,0.0487 -0.1089157,0.0815 -0.00241,0.003 -0.00481,0.007 -0.00722,0.01 4.762e-4,3.5e-4 0.00111,0.002 0.00146,10e-4 0.03306,-0.0463 0.02427,-0.10382 -0.0018,-0.152 -0.00935,-0.0173 -0.027147,-0.0284 -0.040721,-0.0426 -0.00748,-0.004 -0.014962,-0.008 -0.022445,-0.0125 -0.00161,-9.8e-4 -0.0067,-0.002 -0.00486,-0.003 0.014309,-0.003 0.029365,9.3e-4 0.044053,0.001 0.027289,5.3e-4 0.052007,5e-4 0.079426,6.1e-4 0.068591,0.005 0.1331656,-0.0138 0.1971061,-0.0362 0.069642,-0.0237 0.1339144,-0.0596 0.2024832,-0.0861 0.086049,-0.0297 0.1763483,-0.0393 0.2667003,-0.0433 0.1341861,-0.004 0.2511092,0.0563 0.3632917,0.12259 0.1327253,0.0868 0.2509033,0.19287 0.3733263,0.29301 0.1084199,0.087 0.2218118,0.16755 0.3380885,0.2437 0.070682,0.0405 0.1425559,0.0797 0.2199151,0.10591 0.037802,0.0121 0.077353,0.0132 0.1166355,0.0142 0.038914,-0.005 0.07743,-0.008 0.1129662,-0.0257 0.060929,-0.0259 0.1193265,-0.057 0.1760281,-0.091 0.095316,-0.0577 0.19334,-0.1098 0.2938132,-0.15784 0.1022344,-0.0508 0.2071774,-0.0971 0.3138275,-0.13786 0.079423,-0.024 0.1570638,-0.0532 0.236002,-0.0786 0.01192,-0.003 0.023754,-0.007 0.035758,-0.01 0.1126003,-0.0271 -0.042952,0.004 -0.038272,0.0522 0.00923,0.0957 0.07132,0.17865 0.1069806,0.26797 0.00692,10e-4 0.014679,2.4e-4 0.020751,0.004 0.00292,0.002 -0.00648,0.002 -0.00981,0.003 -0.010559,0.002 -0.021183,0.004 -0.031811,0.005 -0.05042,0.008 -0.1011698,0.0123 -0.1517364,0.0188 -0.1369087,0.0189 -0.274978,0.027 -0.4130982,0.0258 -0.1230305,-7.7e-4 -0.2448854,-0.0131 -0.3647162,-0.0407 -0.052058,-0.0143 -0.1015249,-0.0368 -0.1551935,-0.0445 -0.037433,-0.004 -0.075171,-0.004 -0.1127831,-0.004 -0.00755,0 -0.015113,-3.7e-4 -0.022656,0 -0.00345,1.7e-4 0.00703,0.002 0.010353,6.1e-4 0.020598,-0.006 0.04494,-0.007 0.060735,-0.0212 0.066697,-0.0613 0.093057,-0.11515 0.064933,-0.19796 0.025765,0.0233 0.052919,0.0466 0.07845,0.0708 0.054614,0.0453 0.1190998,0.0845 0.1148715,0.1744 -0.00249,0.0529 -0.040249,0.0979 -0.060374,0.14688 -0.063418,0.0548 -0.1417526,0.0722 -0.2225436,0.0817 -0.054273,0.005 -0.1088361,0.005 -0.1632974,0.005 -0.069111,0.003 -0.137432,-0.007 -0.2045629,-0.0225 -0.055878,-0.0138 -0.111434,-0.0274 -0.1656786,-0.0469 -0.058235,-0.0214 -0.1167064,-0.0417 -0.1775958,-0.0541 -0.093759,-0.0154 -0.1891818,-0.0164 -0.2839683,-0.0182 -0.087071,-0.001 -0.174154,-9.3e-4 -0.261231,-7.4e-4 -0.068224,0.003 -0.1353998,-0.001 -0.2025375,-0.0132 -0.068903,-0.008 -0.1336635,-0.0289 -0.1829925,-0.081 -0.014616,-0.0154 -0.02454,-0.0347 -0.036811,-0.0521 -0.036579,-0.0865 -0.030141,-0.17119 -0.00443,-0.25885 0.015229,-0.035 0.015385,-0.0384 0.030273,-0.0652 0.00306,-0.005 -0.00699,0.0107 -0.00875,0.0167 -0.00366,0.0125 -0.00709,0.0254 -0.00738,0.0385 -8.731e-4,0.0382 0.00611,0.0442 0.02114,0.0761 -0.00459,4.3e-4 0.036756,0.0349 0.034744,0.0343 -0.018563,-0.006 -0.035861,-0.014 -0.054583,-0.019 -0.027883,-0.005 -0.056404,-0.006 -0.084682,-0.006 -0.048617,0.002 -0.095376,-0.013 -0.1431332,-0.0192 -0.049196,-0.005 -0.1707539,-0.0291 -0.1783183,-0.0904 -0.01048,-0.0849 0.010398,-0.17448 0.045377,-0.25252 0.012703,-0.0283 0.056639,-0.0255 0.084959,-0.0383 0.2261094,-0.0431 0.4587131,-0.0409 0.6881587,-0.0453 0.1664883,-0.004 0.3342119,-0.005 0.4987785,0.025 0.08359,0.015 0.1192786,0.0277 0.1988997,0.0511 0.1256702,0.0453 0.2495074,0.0957 0.3708469,0.15157 0.066509,0.0265 0.128629,0.0632 0.1954046,0.0889 0.027837,0.009 0.057335,0.01 0.086341,0.0108 0.041265,10e-4 0.081722,-0.0153 0.1200304,-0.0298 0.071775,-0.0294 0.1466006,-0.0481 0.2232477,-0.0587 0.045581,-0.006 0.1035942,-0.006 0.1422935,-0.008 0.03774,-0.008 0.015436,-0.003 0.055148,-0.0223 0.061148,-0.0296 0.1279212,-0.0396 0.1949063,-0.0447 0.040306,0.002 0.069793,-0.007 0.1095164,-0.0141 0.060105,-0.0101 0.1206576,-0.0118 0.1812832,-0.008 0.060684,0.006 0.1168601,0.0311 0.1727737,0.0537 0.027197,0.01 0.056336,0.0106 0.084911,0.012 0.044392,10e-4 0.087288,-0.0166 0.1306833,-0.026 0.059024,-0.008 0.1168339,-0.0214 0.1754557,-0.0314 0.089083,-0.0413 0.1779196,-0.0865 0.2671313,-0.12853 0.171319,-0.0807 0.3492421,-0.1461 0.5291354,-0.20476 0.095211,-0.0317 0.1933406,-0.05 0.2932573,-0.0565 0.00497,-10e-4 0.1043536,-0.002 0.1043448,-0.002 -0.00839,0.36574 0.094397,0.35357 -0.056057,0.35514 -0.092547,0.008 -0.1850022,0.0154 -0.2773373,0.0255 -0.1154547,0.0123 -0.2314702,0.0176 -0.347489,0.0207 -0.084156,0.002 -0.1683387,0.002 -0.2525103,0.002 -0.063361,-8e-5 -0.1267222,-1.6e-4 -0.1900831,-2e-4 -0.061488,-9e-4 -0.1226103,0.009 -0.1827643,0.0205 -0.05429,0.0122 -0.1097807,0.0162 -0.1640626,0.028 -0.032039,0.012 -0.070564,0.005 -0.1011092,0.0201 -0.00329,0.002 0.00718,-0.002 0.010768,-0.002 -0.00396,0.002 -0.00866,0.003 -0.01188,0.006 -0.00282,0.003 0.00736,-0.003 0.010604,-0.005 0.00636,-0.004 0.012549,-0.009 0.018063,-0.014 0.019375,-0.0185 0.026927,-0.0429 0.031856,-0.0684 -0.00379,-0.0483 0.00124,-0.0252 -0.012105,-0.0643 -0.00119,-0.003 -0.0073,-0.0124 -0.00438,-0.0102 0.066298,0.0512 -0.00119,0.004 0.024776,0.022 0.03469,0.0328 0.070378,0.0643 0.1045281,0.0976 0.043883,0.0429 0.07522,0.096 0.1096997,0.14625 0.018783,0.0335 0.042037,0.0639 0.057891,0.099 0.0235,0.0521 0.00659,0.0241 0.017005,0.041 0.017605,0.0439 0.034742,0.0773 0.050008,0.12576 0.00645,0.0153 0.00972,0.0147 0.023561,0.033 0.043342,0.0484 0.072711,0.10619 0.1045123,0.16227 0.050116,0.0825 0.09003,0.17026 0.1303118,0.25778 0.024395,0.0576 0.05401,0.11264 0.081349,0.16887 0.029413,0.0582 0.052771,0.11798 0.06757,0.18157 0.00896,0.0341 0.020614,0.0654 0.035862,0.097 0.02622,0.0709 0.0706,0.13163 0.110127,0.19531 0.039398,0.0683 0.090443,0.12777 0.143547,0.18554 0.080226,0.0906 0.1606825,0.18085 0.2367592,0.27495 0.061093,0.0773 0.1114999,0.16174 0.1574379,0.24863 0.022799,0.0475 0.040973,0.0969 0.067871,0.14228 2.524e-4,-8.5e-4 3.41e-5,-0.003 7.673e-4,-0.003 0.01338,0.009 0.022008,0.024 0.033156,0.0358 0.018119,0.0193 0.03867,0.0368 0.058021,0.0548 0.049463,0.0428 0.093189,0.0914 0.1399037,0.13696 0.037797,0.0342 0.064792,0.0775 0.098058,0.11547 0.02471,0.0404 0.04354,0.0634 0.06724,0.0877 0.01446,0.003 0.05522,0.0431 0.07948,0.0655 0.02164,0.0207 0.04159,0.0313 0.0665,0.0457 0.0269,0.0143 0.05671,0.029 0.08507,0.0437 0.02208,0.0111 0.04447,0.0193 0.06889,0.0231 0.01538,10e-4 0.03103,0.004 0.04651,0.004 0.0038,-1.6e-4 0.0019,-0.003 0.0044,-0.004 0.0039,-0.002 0.0081,-0.004 0.01218,-0.005 0.05989,-0.0316 0.126728,-0.045 0.189602,-0.0682 0.04162,-0.0172 0.08695,-0.0228 0.128891,-0.0361 0.05422,-0.0175 0.110911,-0.0227 0.167458,-0.0257 0.04962,-0.002 0.09929,-0.002 0.148935,-0.002 0.0079,10e-6 0.01586,5e-4 0.02378,4e-5 10e-4,-6e-5 0.0031,-6.1e-4 0.0027,-0.002 -5.02e-4,-0.001 -0.005,-5.2e-4 -0.0038,-0.001 0.0052,-0.003 0.01126,-0.004 0.01691,-0.007 0.04947,-0.0192 0.02032,-0.007 0.07105,-0.0297 0.09847,-0.0458 0.203311,-0.0749 0.307388,-0.10469 0.07403,-0.0225 0.150079,-0.0358 0.227049,-0.0423 0.01011,-5.5e-4 0.02023,-10e-4 0.03034,-0.002 6.88e-4,-4.8e-4 0.0012,-0.001 0.0021,-0.001 0.0049,-10e-4 0.07178,-0.0115 0.05285,-0.0116 -0.06553,0.0362 -0.103773,0.0416 -0.113737,0.14047 -0.0038,0.0374 0.01515,0.0742 0.02949,0.10897 0.0052,0.0126 0.0186,0.02 0.02781,0.0301 10e-4,10e-4 0.0044,0.004 0.0029,0.004 -0.0067,-0.002 -0.01287,-0.005 -0.0193,-0.008 -0.06123,-0.015 -0.122993,-0.0272 -0.183661,-0.0447 -0.07427,-0.0246 -0.142873,-0.0616 -0.207824,-0.10466 -0.05101,-0.0267 -0.07792,-0.0836 -0.124124,-0.1152 -0.04802,-0.0412 -0.08879,-0.0896 -0.123388,-0.14239 -0.04969,-0.0707 -0.06189,-0.15984 -0.07876,-0.24238 -0.01998,-0.12081 -0.05394,-0.23848 -0.07752,-0.35852 -0.02114,-0.11548 -0.047,-0.22986 -0.08074,-0.34228 -0.02369,-0.0575 -0.03727,-0.1191 -0.06709,-0.17387 -0.02329,-0.0558 -0.05369,-0.10798 -0.07989,-0.1624 -0.01486,-0.0295 -0.02826,-0.0435 -0.04509,-0.0645 -0.06916,-0.0861 -0.01175,-0.0207 -0.0148,-0.0222 -0.0045,-0.002 -0.02828,-0.0278 -0.03194,-0.0312 -0.0039,-7.2e-4 0.0094,0.008 0.0063,0.007 -0.03918,-0.0134 -0.07541,-0.036 -0.110283,-0.0577 -0.08181,-0.0571 -0.147383,-0.13177 -0.21117,-0.20749 -0.06478,-0.0778 -0.11847,-0.16404 -0.16367,-0.25438 -0.03164,-0.0677 -0.04772,-0.14107 -0.07105,-0.21167 -0.0028,-0.009 -0.0057,-0.0177 -0.0083,-0.0266 -0.0066,-0.0225 -0.01139,-0.0406 -0.01605,-0.0637 -0.0016,-0.008 -0.0093,-0.0633 -0.0089,-0.0385 -0.017,-0.03 -0.03176,-0.0642 -0.04815,-0.0924 -0.01343,-0.0219 -0.02491,-0.0301 -0.046795,-0.0446 -0.027477,-0.0237 -0.057471,-0.0411 -0.090322,-0.0559 -0.034149,-0.0181 -0.067637,-0.0395 -0.1048632,-0.051 -0.034071,-0.0196 -0.076324,-0.0264 -0.1088794,-0.0488 -0.00442,-0.003 0.00966,0.005 0.014496,0.007 0.057262,0.008 0.074009,0.0181 0.1327428,-0.0193 0.079282,0.0254 0.033287,-0.0542 0.058525,-0.0721 0.00856,-0.006 -0.00853,0.0299 0.00321,0.003 0.034141,0.0727 0.081835,0.13765 0.1234224,0.20618 0.06116,0.10516 0.121419,0.21099 0.186028,0.31408 0.05344,0.1039 0.1146,0.20295 0.178045,0.30091 0.05494,0.0937 0.119545,0.18018 0.186651,0.26524 0.08225,0.10458 0.156845,0.21463 0.232567,0.32391 0.05416,0.0754 0.08669,0.16217 0.125048,0.24568 0.02459,0.0494 0.03471,0.10358 0.04865,0.15644 0.0062,0.0119 0.03546,0.0777 0.02439,0.0491 0.0039,0.006 0.0077,0.0115 0.01157,0.0172 0.139554,0.2081 -0.15475,0.40546 -0.294304,0.19736 v 0 c -0.0026,-0.004 -0.0053,-0.008 -0.0079,-0.0118 -0.03231,-0.0506 -0.05771,-0.10423 -0.0764,-0.1614 -0.0091,-0.0347 -0.01437,-0.0705 -0.02987,-0.10301 -0.02793,-0.0639 -0.05308,-0.12946 -0.09249,-0.18771 -0.07153,-0.10327 -0.14184,-0.20737 -0.2195,-0.30624 -0.07392,-0.0937 -0.144969,-0.18929 -0.205912,-0.29216 -0.06439,-0.0995 -0.1274765,-0.19982 -0.1810951,-0.3057 -0.065236,-0.1047 -0.1269931,-0.21158 -0.1886841,-0.3184 -0.066784,-0.11079 -0.1494475,-0.21574 -0.1719758,-0.34663 -0.00333,-0.0555 -0.010636,-0.12558 0.01837,-0.17749 0.057336,-0.10259 0.1229635,-0.13409 0.2371994,-0.11787 0.04055,0.0143 0.076681,0.03 0.1150856,0.0485 0.04732,0.0175 0.094297,0.0379 0.137316,0.0644 0.05376,0.0259 0.105801,0.0549 0.151921,0.0931 0.05001,0.0387 0.09919,0.0799 0.131345,0.13545 0.02885,0.0478 0.05244,0.0984 0.07756,0.14827 0.019,0.0519 0.02835,0.10479 0.04386,0.15762 0.01708,0.0547 0.03139,0.11037 0.05193,0.16394 0.03012,0.0652 0.0717,0.12526 0.116184,0.1814 0.0404,0.048 0.08031,0.0959 0.129019,0.13595 0.0065,0.004 0.01142,0.0106 0.01837,0.0139 0.04325,0.0204 0.09023,0.034 0.126808,0.0668 0.03551,0.0318 0.07164,0.0653 0.09757,0.10562 7.41e-4,0.001 -0.0021,-0.002 -0.0031,-0.003 0.03261,0.0424 0.06524,0.0845 0.08785,0.13345 0.02304,0.0514 0.05332,0.0996 0.0747,0.15186 0.03749,0.0752 0.06338,0.15458 0.09116,0.23372 0.03704,0.12372 0.06587,0.24949 0.08917,0.37653 0.02273,0.11899 0.05786,0.23527 0.07684,0.35508 0.0053,0.0262 0.0094,0.0526 0.01526,0.0786 0.0046,0.0204 0.01006,0.0315 0.008,0.0316 -0.0029,5e-5 -0.0074,-0.009 -0.006,-0.006 0.005,0.009 0.0111,0.0163 0.01666,0.0245 0.0074,0.0144 0.03318,0.0412 0.04956,0.0564 0.03397,0.0298 0.06372,0.0629 0.09617,0.0939 0.03227,0.0252 0.07117,0.0407 0.108282,0.0572 0.07228,0.0226 0.148593,0.0294 0.219313,0.0574 0.04435,0.0188 0.108505,0.042 0.133676,0.0863 0.05593,0.0983 0.06069,0.15678 -0.0097,0.25076 -0.01916,0.0256 -0.05357,0.0349 -0.08035,0.0523 -0.05344,0.0149 -0.108375,0.0275 -0.163935,0.0303 -0.05384,0.004 -0.106799,0.0139 -0.158493,0.0298 -0.08838,0.0252 -0.177814,0.049 -0.261375,0.088 -0.08078,0.0353 -0.163965,0.0732 -0.25425,0.0694 -0.04369,-3e-5 -0.0874,-2.3e-4 -0.131078,10e-4 -0.02656,0.001 -0.05352,0.002 -0.07913,0.01 -0.04021,0.0125 -0.08166,0.019 -0.121196,0.0336 -0.06339,0.0207 -0.127686,0.0382 -0.188014,0.0677 -0.08047,0.0259 -0.160767,0.0362 -0.244332,0.0188 -0.05861,-0.0118 -0.114487,-0.0305 -0.167863,-0.0577 -0.03368,-0.0178 -0.06947,-0.036 -0.104933,-0.055 -0.0425,-0.0265 -0.08387,-0.0543 -0.1216519,-0.0874 -0.033425,-0.0308 -0.042286,-0.0393 -0.093723,-0.0793 -0.031682,-0.0329 -0.063948,-0.0664 -0.084523,-0.10686 -0.026186,-0.0318 -0.043883,-0.0611 -0.074308,-0.0898 -0.044458,-0.0436 -0.086161,-0.0899 -0.1333368,-0.13069 -0.056986,-0.053 -0.1138722,-0.10707 -0.1581613,-0.17151 -0.027966,-0.0496 -0.052275,-0.10101 -0.074102,-0.15364 -0.034656,-0.0668 -0.073293,-0.13129 -0.1194666,-0.19081 -0.071194,-0.0885 -0.1471511,-0.17282 -0.2221925,-0.25802 -0.067822,-0.0742 -0.1324325,-0.15116 -0.183455,-0.23819 -0.046348,-0.0748 -0.097347,-0.14725 -0.1290307,-0.22997 -0.026329,-0.0559 -0.046383,-0.11333 -0.061921,-0.17309 -0.00658,-0.037 -0.025289,-0.0691 -0.040419,-0.10321 -0.028185,-0.0584 -0.059145,-0.11544 -0.084355,-0.17524 -0.036055,-0.0785 -0.071449,-0.15732 -0.1166829,-0.23116 -0.024582,-0.0434 -0.044981,-0.0876 -0.079637,-0.12427 -0.033297,-0.0452 -0.063995,-0.0915 -0.080147,-0.14594 -0.00235,-0.0275 -0.025532,-0.0513 -0.032263,-0.0782 -0.013353,-0.0306 -0.023969,-0.06 -0.045163,-0.0874 -0.024048,-0.0354 -0.041649,-0.0678 -0.06849,-0.0964 -0.022415,-0.0268 -0.054182,-0.0452 -0.076551,-0.0723 -0.072524,-0.0608 -0.1339405,-0.12673 -0.1392377,-0.22739 0.00138,-0.0168 5.027e-4,-0.034 0.00416,-0.0505 0.018508,-0.0834 0.072638,-0.14875 0.1500547,-0.18396 0.054289,-0.0224 0.1094251,-0.036 0.1675868,-0.0438 0.056302,-0.012 0.1133668,-0.0177 0.1697755,-0.0291 0.082796,-0.0162 0.1669338,-0.028 0.2514978,-0.0271 0.063336,4e-5 0.1266714,1.2e-4 0.1900071,2e-4 0.081031,4e-5 0.1620734,1.6e-4 0.2430907,-0.002 0.106331,-0.003 0.2126657,-0.007 0.3184864,-0.0187 0.1038142,-0.0113 0.2078056,-0.0203 0.3119834,-0.0275 0.1473242,-0.001 0.039419,-0.0103 0.055895,0.35352 1.501e-4,0.003 -0.00663,-1.1e-4 -0.00995,-1.2e-4 -0.013459,-4e-5 -0.030792,7e-5 -0.043895,3.4e-4 -0.00835,1.9e-4 -0.016695,5.1e-4 -0.025043,7.7e-4 -0.070098,0.004 -0.1386039,0.0176 -0.2053596,0.0398 -0.1658823,0.0538 -0.3298232,0.11421 -0.4877837,0.18838 -0.1179168,0.0555 -0.2326454,0.12448 -0.359266,0.15736 -0.05374,0.009 -0.106644,0.0223 -0.1608032,0.0287 -0.07384,0.015 -0.1463799,0.0421 -0.2231723,0.0332 -0.067914,-0.004 -0.1357519,-0.0116 -0.1993252,-0.0376 -0.027663,-0.0113 -0.063978,-0.0279 -0.075621,-0.0295 -0.02432,-0.001 -0.056882,-4e-5 -0.08437,0.004 -0.04805,0.008 -0.095678,0.02 -0.1448379,0.0184 -0.021648,10e-4 -0.04406,0.002 -0.064603,0.01 -0.051978,0.0253 -0.104508,0.0487 -0.1627581,0.055 -0.04795,0.005 -0.095822,0.005 -0.1438738,0.008 -0.051007,0.006 -0.099979,0.0205 -0.1475243,0.0401 -0.082143,0.0296 -0.1677403,0.0557 -0.2561256,0.0512 -0.069331,-0.003 -0.138619,-0.0103 -0.2038276,-0.0358 -0.071984,-0.0293 -0.1407634,-0.0657 -0.2122713,-0.0962 -0.1060868,-0.049 -0.2144524,-0.0927 -0.3238105,-0.13382 -0.052057,-0.0158 -0.092903,-0.0297 -0.1466533,-0.0398 -0.1460275,-0.0273 -0.295093,-0.0248 -0.4429011,-0.0216 -0.1956996,0.004 -0.3920911,0.006 -0.5867149,0.0284 0.077572,-0.0621 0.081565,-0.0563 0.047888,-0.25514 -0.00509,-0.03 -0.048611,-0.0368 -0.074085,-0.0535 -0.00382,-0.003 -0.018158,-0.002 -0.013637,-0.002 0.00914,0.001 0.018381,0.002 0.02757,0.003 0.037468,0.005 0.072783,0.0156 0.1050547,0.0161 0.059255,0.002 0.1188884,0.005 0.1762715,0.0211 0.072638,0.0225 0.1457333,0.0464 0.1974842,0.10604 0.046027,0.0753 0.066678,0.11107 0.047253,0.20282 -0.00372,0.0176 -0.011917,0.0339 -0.0186,0.0505 -0.00172,0.004 -0.00206,0.0113 -0.0066,0.0123 -0.00383,8.7e-4 0.00188,-0.008 0.00282,-0.0115 -0.00119,0.004 -0.00119,0.008 -0.0036,0.0113 -0.00122,0.002 -1.702e-4,-0.008 -5.292e-4,-0.006 -0.00901,0.0471 0.00398,0.0205 -0.023103,-0.0245 -0.019698,-0.0221 -0.020495,-0.0269 -0.04897,-0.041 -0.012004,-0.006 -0.057197,-0.0114 -4.85e-5,-0.003 0.00809,10e-4 0.016137,0.003 0.024207,0.004 0.046143,0.008 0.09157,0.0101 0.1387639,0.008 0.08955,-1.8e-4 0.1791065,-4.7e-4 0.2686505,8e-4 0.1176279,0.002 0.2360316,0.004 0.3520146,0.0261 0.077439,0.0173 0.1528583,0.0406 0.2270585,0.0686 0.040417,0.0173 0.084837,0.0215 0.1265534,0.0348 0.038006,0.0124 0.079169,0.0123 0.1186199,0.0121 0.041641,-1e-4 0.083348,-1e-5 0.1248949,-0.003 0.033011,-0.003 0.054185,-0.0153 0.014962,0.0162 -0.015393,0.0444 -0.046271,0.0861 -0.046178,0.13309 7.23e-5,0.0365 0.02958,0.0668 0.046638,0.0991 0.00185,0.004 0.00555,0.007 0.00952,0.007 0.00375,1.1e-4 -0.00573,-0.005 -0.00871,-0.007 -0.046,-0.0351 -0.019542,-0.0125 -0.056087,-0.0454 -0.043315,-0.0465 -0.1002321,-0.0812 -0.1325276,-0.13812 -0.026363,-0.0507 -0.057385,-0.0944 -0.038551,-0.15978 0.033509,-0.11635 0.1180491,-0.16582 0.2280533,-0.16259 0.056117,2.6e-4 0.1124379,6.9e-4 0.1680954,0.009 0.061125,0.0104 0.1205431,0.0269 0.1784898,0.0491 0.094762,0.0223 0.1912156,0.0308 0.2886003,0.0315 0.1218078,0.002 0.24359,-0.007 0.3643244,-0.023 0.046228,-0.006 0.092754,-0.01 0.1388329,-0.0169 0.024413,-0.004 0.065402,-0.0117 0.088637,-0.0124 0.019312,-6.3e-4 0.038604,0.002 0.057906,0.003 0.041053,0.0904 0.1114237,0.17257 0.123159,0.27114 0.00767,0.0644 -0.1431036,0.0921 -0.1883352,0.10379 -0.073169,0.0229 -0.1446297,0.0513 -0.2184032,0.0725 -0.097609,0.036 -0.1925754,0.0803 -0.2859762,0.12598 -0.090661,0.0433 -0.1791459,0.0902 -0.2650617,0.14242 -0.070805,0.042 -0.1434039,0.081 -0.2193509,0.11301 -0.083775,0.0337 -0.1705166,0.0521 -0.2611001,0.0537 -0.075824,-0.002 -0.1515444,-0.009 -0.2238153,-0.0339 -0.1040593,-0.0371 -0.2027701,-0.0867 -0.2972062,-0.14406 -0.1266341,-0.0832 -0.2502876,-0.17085 -0.3683302,-0.26591 -0.108849,-0.0893 -0.2142389,-0.18326 -0.3306148,-0.26299 -0.051368,-0.0313 -0.1050542,-0.0686 -0.1666206,-0.0727 -0.052704,0.002 -0.1055507,0.006 -0.156469,0.0208 -0.072777,0.0259 -0.1386046,0.0691 -0.213465,0.0901 -0.1011074,0.0337 -0.2048444,0.0607 -0.3125222,0.055 -0.094738,-3.7e-4 -0.1924513,0.006 -0.2795082,-0.0383 -0.021942,-0.0193 -0.049547,-0.0337 -0.065823,-0.058 -0.074646,-0.11137 -0.030565,-0.22964 0.053268,-0.31626 0.039607,-0.0371 0.082617,-0.0663 0.1261232,-0.0969 -0.00532,0.012 0.00949,-0.0222 0.010025,-0.009 4.37e-5,10e-4 -0.034877,0.0605 -0.013571,0.0653 0.023455,0.0862 0.096754,0.1264 0.1876116,0.10347 0.018899,-0.005 0.034139,-0.0188 0.051208,-0.0282 0.036164,-0.0473 0.044583,-0.0451 0.050438,-0.10798 0.00377,-0.0405 -0.025728,-0.0724 0.00892,-10e-4 0.016439,0.0458 0.040083,0.0891 0.055357,0.1355 0.018301,0.0574 0.033073,0.11652 0.031607,0.17729 2.911e-4,0.0258 0.012652,0.0858 -0.014401,0.0296 -0.035285,-0.033 -0.081727,-0.0697 -0.134229,-0.0479 -0.00428,0.002 0.018415,-0.004 0.013668,-0.003 0.05454,-0.0222 0.1012357,-0.0624 0.1576364,-0.0814 0.074108,-0.0403 0.1468257,-0.083 0.2211996,-0.12287 0.089447,-0.045 0.179883,-0.0874 0.2789388,-0.10692 0.1030981,-0.019 0.2071899,-0.0288 0.3118281,-0.0348 0.1158375,-0.005 0.2319195,-10e-4 0.3475149,0.008 0.1258943,0.0125 0.2503355,0.0334 0.372669,0.0661 0.087362,0.0242 0.1749523,0.0482 0.258208,0.0846 0.053425,0.0186 0.1066802,0.0371 0.160402,0.0548 0.035287,0.0144 0.07338,0.0216 0.1114756,0.0204 0.053484,0 0.1069684,0 0.1604526,0 0.060357,0 0.1207135,0 0.1810702,5e-5 0.061793,6e-5 0.1235861,1.7e-4 0.1853787,4e-4 0.067587,1.9e-4 0.1351963,6.6e-4 0.2027648,-10e-4 0.1288431,-0.005 -0.020249,0.062 -0.013809,0.31952 3.969e-4,0.0159 0.060446,0.0201 0.044857,0.0167 -0.00542,-10e-4 -0.010951,-0.002 -0.016428,-0.003 -0.060053,-0.0109 -0.1240036,0.004 -0.1846107,-0.002 -0.085736,-8e-5 -0.1714711,-2.1e-4 -0.2572064,-4e-4 -0.08152,-1.1e-4 -0.1630725,-5.3e-4 -0.2445536,0.002 -0.075781,0.004 -0.1517428,0.009 -0.224976,0.0305 -0.093091,0.025 -0.1864527,0.0496 -0.2826621,0.0595 -0.083047,0.0101 -0.1669216,0.0152 -0.2482572,0.0365 -0.1362342,0.0315 -0.2732963,0.0582 -0.4097089,0.089 -0.1469839,0.0281 -0.2955115,0.0542 -0.4455604,0.0559 -0.07554,-0.005 -0.151107,-0.0163 -0.2269106,-0.0105 -0.065088,0.004 -0.1299361,0.0113 -0.1933184,0.0275 -0.09426,0.0175 -0.1892604,0.0209 -0.2849628,0.0231 -0.1026848,0.006 -0.2051704,0.0167 -0.3080227,0.0174 -0.2505651,0 -0.2505651,-0.35435 0,-0.35435 z"
       inkscape:connector-curvature="0" />
    <path
       style="fill:#ffff00;stroke-width:0.26458332"
       id="path80"
       d="m 1.2052279,295.94918 c 0.1224229,-0.0937 0.2260186,-0.20728 0.3264946,-0.32341 0.1358826,-0.15973 0.2467849,-0.33715 0.3402578,-0.52429 0.063796,-0.12413 0.099553,-0.25845 0.1332667,-0.39298 0.020894,-0.1135 0.058061,-0.22241 0.1004772,-0.32937 0.038939,-0.12543 0.1197344,-0.22755 0.1912157,-0.33497 0.068404,-0.0956 0.1180353,-0.20227 0.1731128,-0.30562 0.058258,-0.10708 0.1057538,-0.21931 0.1637198,-0.32652 0.028814,-0.0657 0.073886,-0.12259 0.1048946,-0.18695 0.017124,-0.0396 0.043747,-0.0753 0.053861,-0.11767 0.00979,-0.0614 0.037641,-0.11635 0.070968,-0.16782 0.033105,-0.0514 0.077929,-0.092 0.1275929,-0.12689 0.065387,-0.0465 0.1408078,-0.0751 0.2161521,-0.10079 0.122087,-0.0485 0.2492243,-0.0472 0.3684881,0.0101 0.025424,0.0122 0.048189,0.0293 0.072283,0.044 0.1075611,0.0763 0.1789046,0.18426 0.2499394,0.2924 0.053028,0.0763 0.081503,0.15282 0.096757,0.24429 0.013383,0.0909 0.00378,0.18339 0.012488,0.27444 0.00382,0.036 0.00832,0.0728 0.023815,0.1061 0.013936,0.0345 0.036302,0.0685 0.053579,0.10548 0.021272,0.0538 0.038173,0.1091 0.054196,0.16467 0.016219,0.0585 0.033558,0.1163 0.044124,0.17623 0.00899,0.0633 0.00992,0.12723 0.010509,0.19099 0.00167,0.0234 -0.00689,0.19309 -0.037668,0.18792 -0.1135907,-0.0191 -0.217751,-0.0752 -0.3266265,-0.1128 0.00414,-0.0668 0.031956,-0.12693 0.061387,-0.1857 0.013451,-0.0351 0.024098,-0.0716 0.033231,-0.10809 0.00751,-0.0346 0.00843,-0.0701 0.0093,-0.10538 0.00111,-0.0394 0.00338,-0.078 -0.00799,-0.116 -0.039685,-0.0859 -0.087663,-0.16762 -0.1343546,-0.24982 -0.051735,-0.0984 -0.098755,-0.19915 -0.1508546,-0.29736 -0.027521,-0.0464 -0.038832,-0.0982 -0.052185,-0.14948 -0.00127,-0.005 1.199e-4,0.0104 0.0023,0.0149 0.00769,0.0161 0.017955,0.0309 0.026931,0.0463 0.00574,0.005 0.012523,0.01 0.017209,0.0164 0.00491,0.007 -0.016624,5e-4 -0.024889,-2e-4 -0.01098,-9.6e-4 -0.021955,-0.002 -0.032954,-0.003 -0.028742,-0.002 -0.047103,-0.002 -0.075967,-0.003 -0.043865,-9.8e-4 -0.087743,-9.2e-4 -0.1316154,-6.9e-4 -0.00722,4e-5 -0.0285,0.003 -0.021667,1.6e-4 0.00816,-0.003 0.017214,-10e-4 0.025821,-0.002 0.035939,-0.0903 0.08705,-0.176 0.1078172,-0.27097 0.00399,-0.0182 -0.027948,-0.025 -0.039979,-0.0393 -0.00214,-0.003 0.00644,0.002 0.00952,0.003 0.032325,0.0134 0.063496,0.0288 0.096139,0.0415 0.090758,0.0227 0.1727915,0.0623 0.2512698,0.11243 0.092426,0.0608 0.1837653,0.12278 0.2816685,0.17446 0.105097,0.0579 0.2109229,0.11459 0.3149986,0.17429 0.077427,0.0414 0.1536769,0.0819 0.2211303,0.13859 0.011385,0.0119 0.022839,0.0238 0.034159,0.0358 0.024387,0.0258 0.043233,0.0528 0.062715,0.0825 0.00206,0.003 0.00861,0.0123 0.00644,0.009 -0.00487,-0.007 -0.00969,-0.0137 -0.014531,-0.0206 -0.02571,-0.014 -0.051419,-0.0279 -0.077128,-0.0419 -0.00544,-0.003 -0.021212,-0.004 -0.016314,-0.008 0.020423,-0.0147 0.046175,-0.0201 0.069188,-0.0302 0.04343,-0.0192 0.086562,-0.0392 0.1301388,-0.0581 0.2229787,-0.0967 0.1736333,-0.0744 0.4219419,-0.1683 0.4123341,-0.1481 0.8415234,-0.24086 1.2745021,-0.30326 0.2252837,-0.0325 0.4107259,-0.0496 0.6359673,-0.073 0.3462195,-0.0315 0.698037,-0.0579 1.0444782,-0.0125 0.038808,0.005 0.077195,0.013 0.1157925,0.0195 0.126053,0.0226 0.2464863,0.0627 0.3530534,0.13396 0.051231,0.0426 0.1014936,0.0881 0.1457886,0.138 0.08976,0.13004 0.053256,0.21527 -0.060124,0.31063 -0.045468,0.0383 -0.246934,0.079 -0.3054308,0.0937 -0.2952723,0.0678 -0.582209,0.16526 -0.8703143,0.25778 -0.2191832,0.0692 -0.4374843,0.14131 -0.6619078,0.19168 -0.099268,0.0213 -0.2002579,0.0315 -0.3016147,0.0339 -0.088565,0.005 -0.1732066,-0.0254 -0.2315562,-0.0942 -0.012134,-0.0143 -0.020907,-0.0311 -0.031361,-0.0467 -0.033358,-0.0579 -0.035064,-0.12419 -0.04747,-0.18782 -0.00601,-0.0167 -0.00694,-0.0289 -0.022982,-0.0364 -5.292e-4,7.9e-4 -7.144e-4,0.003 -0.00161,0.002 -0.029011,-0.01 -0.055827,-0.0248 -0.085654,-0.0337 -0.033223,-0.01 -0.087293,-0.0212 -0.1189789,-0.0282 -0.1802648,-0.0433 -0.3655007,-0.0562 -0.5500277,-0.0659 -0.1664642,0.002 -0.3329726,-0.0227 -0.4992256,-0.0164 -0.1453264,0.0498 -0.2710265,0.14197 -0.3893301,0.23757 -0.099914,0.0849 -0.1941135,0.17567 -0.2830523,0.27186 -0.054258,0.0632 -0.1137518,0.12101 -0.1760416,0.17627 -0.078189,0.066 -0.166257,0.11857 -0.2515669,0.17462 -0.073086,0.0532 -0.1537216,0.0943 -0.2343891,0.13444 -0.049423,0.02 -0.097205,0.0425 -0.1442093,0.0674 -0.080232,0.032 -0.1580271,0.0692 -0.2362102,0.10596 -0.286553,0.15804 -0.5693002,0.3229 -0.8541048,0.48407 -0.1743325,0.0954 -0.3363243,0.21092 -0.5057082,0.31428 -0.2140947,0.13018 -0.3981944,-0.1726 -0.1840997,-0.30278 v 0 c 0.1728926,-0.10465 0.3372538,-0.22346 0.5152873,-0.3199 0.2925068,-0.16552 0.582548,-0.33552 0.8777042,-0.49627 0.07309,-0.0344 0.1454642,-0.071 0.2214517,-0.0986 0.049716,-0.0262 0.099825,-0.0512 0.1523286,-0.0715 0.068086,-0.0336 0.1361617,-0.0679 0.1974326,-0.11323 0.071369,-0.0469 0.1450684,-0.0906 0.2116804,-0.14418 0.05371,-0.047 0.1040098,-0.0967 0.1502902,-0.15112 0.1008565,-0.10904 0.20788,-0.2118 0.3214894,-0.30768 0.145742,-0.11621 0.3051485,-0.23652 0.4864558,-0.29116 0.037486,-0.0113 0.07662,-0.0161 0.1149297,-0.0242 0.1759749,-0.004 0.3515598,0.016 0.5276209,0.0168 0.2044065,0.0109 0.4094285,0.0262 0.6091143,0.074 0.1340008,0.0304 0.2710545,0.0628 0.3783496,0.15403 0.059837,0.0634 0.1041284,0.1334 0.120958,0.22027 8.467e-4,0.004 0.023852,0.10829 0.00617,0.0775 -0.010951,-0.0117 -0.013703,-0.0162 -0.028889,-0.0246 -0.013277,-0.007 -0.081428,-0.0151 -0.022799,-0.0111 0.078078,-0.002 0.1558566,-0.009 0.2323748,-0.0255 0.214035,-0.0476 0.4217051,-0.118 0.6308212,-0.18324 0.2954171,-0.0949 0.5897332,-0.19451 0.8924645,-0.2641 0.038224,-0.01 0.076432,-0.0192 0.1146725,-0.0288 0.022175,-0.006 0.044305,-0.0112 0.066576,-0.0163 0.00642,-0.001 0.021765,-0.01 0.019463,-0.003 -0.026914,0.0721 -0.111838,0.12632 -0.021945,0.21384 0.00683,0.002 0.00455,0.002 -0.00727,-0.009 -0.019124,-0.0172 -0.035793,-0.0345 -0.053684,-0.0524 -0.0042,-0.004 -0.00901,-0.008 -0.013518,-0.0116 -0.060229,-0.0461 -0.1395402,-0.0587 -0.2113444,-0.0761 -0.3513844,-0.0619 -0.7105499,-0.0378 -1.0637441,-0.004 -0.6184646,0.0641 -1.2341248,0.14018 -1.8219319,0.35533 -0.2357022,0.0888 -0.1887588,0.0676 -0.4027596,0.16041 -0.077388,0.0336 -0.2649702,0.13419 -0.3535749,0.12588 -0.046113,-0.004 -0.087432,-0.0306 -0.1311484,-0.0459 -0.01511,-0.0159 -0.031089,-0.0311 -0.045328,-0.0478 -0.00619,-0.007 -0.010507,-0.0159 -0.015759,-0.0239 5.027e-4,-7e-5 0.00175,2.6e-4 0.00151,-2e-4 -0.00377,-0.008 -0.022503,-0.0262 -0.023506,-0.0274 -0.00122,-10e-4 -0.0018,-0.003 -0.0027,-0.005 -0.047918,-0.0446 -0.1126487,-0.0641 -0.166716,-0.0999 -0.1001708,-0.0583 -0.2030662,-0.11193 -0.3043037,-0.16836 -0.1062315,-0.0569 -0.206806,-0.12244 -0.3069696,-0.1893 -0.015793,-0.0103 -0.030904,-0.0216 -0.047184,-0.0311 -0.043453,-0.0253 -0.097627,-0.0292 -0.1430256,-0.05 -0.034658,-0.014 -0.2181124,-0.0866 -0.2162283,-0.11912 0.00586,-0.10133 0.062242,-0.19321 0.093363,-0.28982 0.072573,-0.0106 0.1453663,-0.009 0.218675,-0.007 0.1192165,0.004 0.240125,0.007 0.3411127,0.0792 0.020997,0.0262 0.045362,0.0499 0.062993,0.0785 0.021098,0.0341 0.016409,0.0747 0.037335,0.10831 0.0505,0.0952 0.096677,0.19253 0.1459343,0.28839 0.062662,0.11033 0.1303042,0.21982 0.1704872,0.34084 0.015729,0.0691 0.022593,0.13853 0.01796,0.20942 -0.00175,0.062 -0.00536,0.12426 -0.020476,0.18471 -0.015933,0.0605 -0.033092,0.12124 -0.05946,0.17804 -0.00407,0.008 -0.015592,0.0255 -0.019386,0.0365 -0.00193,0.006 -0.00175,0.0121 -0.0049,0.0171 -0.0018,0.003 6.35e-4,-0.007 5.292e-4,-0.0101 -5.35e-5,-0.002 -4.763e-4,0.003 -7.144e-4,0.005 -0.1092089,-0.032 -0.2152605,-0.078 -0.3276264,-0.096 -0.022416,-0.004 -0.015952,0.0944 -0.016066,0.0273 -1.38e-5,-0.008 -5.34e-5,-0.0162 -8.02e-5,-0.0242 -3.968e-4,-0.045 -7.937e-4,-0.09 -0.00551,-0.13478 -0.00741,-0.0471 -0.023987,-0.0917 -0.03539,-0.13789 -0.011274,-0.0395 -0.023096,-0.079 -0.037005,-0.1176 -0.015648,-0.0436 -0.051364,-0.0792 -0.061794,-0.12544 -0.023548,-0.0657 -0.041458,-0.13325 -0.045459,-0.20335 -0.00579,-0.0836 -0.0028,-0.16747 -0.00987,-0.25102 -0.00287,-0.0396 -0.019637,-0.0678 -0.042411,-0.10098 -0.04361,-0.0666 -0.084052,-0.13518 -0.1447075,-0.18831 -0.00868,-0.006 -0.017947,-0.0119 -0.026046,-0.019 -0.00272,-0.002 -0.00301,-0.007 -0.00604,-0.009 -0.033794,-0.0218 -0.069592,7.2e-4 -0.1033356,0.0109 -0.044616,0.0152 -0.091052,0.029 -0.1289651,0.0569 -0.00405,0.003 -0.00732,0.009 -0.01216,0.008 -0.00362,-4e-4 0.00919,-0.0112 0.00657,-0.009 -0.019645,0.019 -0.018264,0.0185 -0.035491,0.0425 0.013642,-0.0313 -0.023217,0.0443 -0.018788,0.0607 -0.019188,0.0624 -0.047333,0.12015 -0.077576,0.17783 -0.034432,0.0669 -0.07754,0.12859 -0.1099603,0.19663 -0.058026,0.10614 -0.1035976,0.21842 -0.1624599,0.32417 -0.060769,0.11371 -0.1160526,0.23082 -0.1913517,0.33604 -0.058166,0.0864 -0.125502,0.1669 -0.1562765,0.26853 -0.036785,0.0924 -0.068727,0.18642 -0.086091,0.28476 -0.040057,0.15965 -0.084744,0.31843 -0.1602571,0.4657 -0.1073391,0.2131 -0.2337159,0.41563 -0.3891966,0.59746 -0.1112851,0.12821 -0.2261003,0.25381 -0.3609343,0.35801 -0.1885695,0.165 -0.4219124,-0.10168 -0.2333429,-0.26668 z"
       inkscape:connector-curvature="0" />
    <ellipse
       style="fill:#0000ff;stroke-width:0.26458332"
       id="path82-5"
       cx="1.924302"
       cy="289.81525"
       rx="0.81501114"
       ry="0.66145831"
       inkscape:transform-center-x="-3.4490328"
       inkscape:transform-center-y="-0.42522323" />
    <ellipse
       style="fill:#0000ff;stroke-width:0.26458332"
       id="path82-8"
       cx="4.2049851"
       cy="290.38544"
       rx="0.81501114"
       ry="0.66145831" />
    <ellipse
       style="fill:#0000ff;stroke-width:0.26458332"
       id="path82-2"
       cx="6.5200891"
       cy="290.59802"
       rx="0.81501114"
       ry="0.66145831"
       inkscape:transform-center-x="2.4568453"
       inkscape:transform-center-y="-0.47247025" />
    <ellipse
       style="fill:#0000ff;stroke-width:0.26458332"
       id="path82-9"
       cx="9.1186762"
       cy="290.45627"
       rx="0.81501114"
       ry="0.66145831" />
    <ellipse
       style="fill:#0000ff;stroke-width:0.26458332"
       id="path82-51"
       cx="11.457404"
       cy="290.14917"
       rx="0.81501114"
       ry="0.66145831" />
  </g>
</svg>
