<?xml version="1.0" encoding="UTF-8" standalone="no"?>
<!-- Created with Inkscape (http://www.inkscape.org/) -->

<svg
   xmlns:dc="http://purl.org/dc/elements/1.1/"
   xmlns:cc="http://creativecommons.org/ns#"
   xmlns:rdf="http://www.w3.org/1999/02/22-rdf-syntax-ns#"
   xmlns:svg="http://www.w3.org/2000/svg"
   xmlns="http://www.w3.org/2000/svg"
   xmlns:sodipodi="http://sodipodi.sourceforge.net/DTD/sodipodi-0.dtd"
   xmlns:inkscape="http://www.inkscape.org/namespaces/inkscape"
   width="50"
   height="50"
   viewBox="0 0 13.229166 13.229167"
   version="1.1"
   id="svg8"
   inkscape:version="0.92.3 (2405546, 2018-03-11)"
   sodipodi:docname="water.svg"
   inkscape:export-filename="C:\Users\Administrator\Desktop\Resumes\Training\Dungeon\images\Drafts\water.png"
   inkscape:export-xdpi="96"
   inkscape:export-ydpi="96">
  <defs
     id="defs2" />
  <sodipodi:namedview
     id="base"
     pagecolor="#ffffff"
     bordercolor="#666666"
     borderopacity="1.0"
     inkscape:pageopacity="0.0"
     inkscape:pageshadow="2"
     inkscape:zoom="11.2"
     inkscape:cx="27.687313"
     inkscape:cy="20.043026"
     inkscape:document-units="mm"
     inkscape:current-layer="layer1"
     showgrid="false"
     units="px"
     inkscape:window-width="2000"
     inkscape:window-height="1066"
     inkscape:window-x="-9"
     inkscape:window-y="-9"
     inkscape:window-maximized="1" />
  <metadata
     id="metadata5">
    <rdf:RDF>
      <cc:Work
         rdf:about="">
        <dc:format>image/svg+xml</dc:format>
        <dc:type
           rdf:resource="http://purl.org/dc/dcmitype/StillImage" />
        <dc:title />
      </cc:Work>
    </rdf:RDF>
  </metadata>
  <g
     inkscape:label="Layer 1"
     inkscape:groupmode="layer"
     id="layer1"
     transform="translate(0,-283.77082)">
    <rect
       style="opacity:1;fill:#0000ff;fill-opacity:1;stroke:#000000;stroke-width:0;stroke-linejoin:miter;stroke-miterlimit:4;stroke-dasharray:none;stroke-opacity:0.89054727"
       id="rect3713"
       width="13.323661"
       height="13.276413"
       x="0"
       y="283.74719" />
    <path
       style="opacity:1;fill:#00ffff;fill-opacity:1;stroke:#000000;stroke-width:0;stroke-linejoin:miter;stroke-miterlimit:4;stroke-dasharray:none;stroke-opacity:0.89054727"
       id="path3715"
       sodipodi:type="arc"
       sodipodi:cx="2.5749629"
       sodipodi:cy="286.05048"
       sodipodi:rx="0.094494447"
       sodipodi:ry="0.082682818"
       sodipodi:start="0.025103943"
       sodipodi:end="0.0044259805"
       sodipodi:open="true"
       d="m 2.6694275,286.05255 a 0.09449445,0.08268282 0 0 1 -0.096348,0.0806 0.09449445,0.08268282 0 0 1 -0.092601,-0.0839 0.09449445,0.08268282 0 0 1 0.095391,-0.0815 0.09449445,0.08268282 0 0 1 0.093587,0.083" />
    <path
       style="opacity:1;fill:#00ffff;fill-opacity:1;stroke:#000000;stroke-width:0;stroke-linejoin:miter;stroke-miterlimit:4;stroke-dasharray:none;stroke-opacity:0.89054727"
       id="path3715-6"
       sodipodi:type="arc"
       sodipodi:cx="10.299851"
       sodipodi:cy="288.82626"
       sodipodi:rx="0.094494455"
       sodipodi:ry="0.082682818"
       sodipodi:start="0.025103943"
       sodipodi:end="0.0044259805"
       sodipodi:open="true"
       d="m 10.394316,288.82834 a 0.09449445,0.08268282 0 0 1 -0.09635,0.0806 0.09449445,0.08268282 0 0 1 -0.0926,-0.0839 0.09449445,0.08268282 0 0 1 0.09539,-0.0815 0.09449445,0.08268282 0 0 1 0.09359,0.0831" />
    <path
       style="opacity:1;fill:#00ffff;fill-opacity:1;stroke:#000000;stroke-width:0;stroke-linejoin:miter;stroke-miterlimit:4;stroke-dasharray:none;stroke-opacity:0.89054727"
       id="path3715-6-7"
       sodipodi:type="arc"
       sodipodi:cx="6.7799482"
       sodipodi:cy="283.91257"
       sodipodi:rx="0.094494455"
       sodipodi:ry="0.082682818"
       sodipodi:start="0.025103943"
       sodipodi:end="0.0044259805"
       sodipodi:open="true"
       d="m 6.8744129,283.91464 a 0.09449445,0.08268282 0 0 1 -0.096348,0.0806 0.09449445,0.08268282 0 0 1 -0.092601,-0.0839 0.09449445,0.08268282 0 0 1 0.095391,-0.0815 0.09449445,0.08268282 0 0 1 0.093587,0.083" />
    <path
       style="opacity:1;fill:#00ffff;fill-opacity:1;stroke:#000000;stroke-width:0;stroke-linejoin:miter;stroke-miterlimit:4;stroke-dasharray:none;stroke-opacity:0.89054727"
       id="path3715-6-7-5"
       sodipodi:type="arc"
       sodipodi:cx="6.0003724"
       sodipodi:cy="296.90552"
       sodipodi:rx="0.094494455"
       sodipodi:ry="0.082682818"
       sodipodi:start="0.025103943"
       sodipodi:end="0.0044259805"
       sodipodi:open="true"
       d="m 6.0948371,296.90759 a 0.09449445,0.08268282 0 0 1 -0.096348,0.0806 0.09449445,0.08268282 0 0 1 -0.0926,-0.0839 0.09449445,0.08268282 0 0 1 0.095391,-0.0815 0.09449445,0.08268282 0 0 1 0.093587,0.083" />
    <path
       style="opacity:1;fill:#00ffff;fill-opacity:1;stroke:#000000;stroke-width:0;stroke-linejoin:miter;stroke-miterlimit:4;stroke-dasharray:none;stroke-opacity:0.89054727"
       id="path3715-6-7-5-9"
       sodipodi:type="arc"
       sodipodi:cx="0.24804686"
       sodipodi:cy="290.66888"
       sodipodi:rx="0.12992963"
       sodipodi:ry="0.082682818"
       sodipodi:start="0.025103943"
       sodipodi:end="0.0044259805"
       sodipodi:open="true"
       d="m 0.37793555,290.67096 a 0.12992963,0.08268282 0 0 1 -0.13247859,0.0806 0.12992963,0.08268282 0 0 1 -0.12732557,-0.0839 0.12992963,0.08268282 0 0 1 0.13116219,-0.0815 0.12992963,0.08268282 0 0 1 0.12868164,0.083" />
    <path
       style="opacity:1;fill:#00ffff;fill-opacity:1;stroke:#000000;stroke-width:0;stroke-linejoin:miter;stroke-miterlimit:4;stroke-dasharray:none;stroke-opacity:0.89054727"
       id="path3715-6-7-5-9-4"
       sodipodi:type="arc"
       sodipodi:cx="13.016555"
       sodipodi:cy="290.73975"
       sodipodi:rx="0.10630617"
       sodipodi:ry="0.082682818"
       sodipodi:start="0.025103943"
       sodipodi:end="0.0044259805"
       sodipodi:open="true"
       d="m 13.122828,290.74182 a 0.10630617,0.08268282 0 0 1 -0.108392,0.0806 0.10630617,0.08268282 0 0 1 -0.104176,-0.0839 0.10630617,0.08268282 0 0 1 0.107315,-0.0815 0.10630617,0.08268282 0 0 1 0.105285,0.083" />
    <path
       style="opacity:1;fill:#00ffff;fill-opacity:1;stroke:#000000;stroke-width:0;stroke-linejoin:miter;stroke-miterlimit:4;stroke-dasharray:none;stroke-opacity:0.89054727"
       id="path3715-4"
       sodipodi:type="arc"
       sodipodi:cx="5.1735492"
       sodipodi:cy="290.44446"
       sodipodi:rx="0.094494455"
       sodipodi:ry="0.11811796"
       sodipodi:start="0.025103943"
       sodipodi:end="0.0044259805"
       sodipodi:open="true"
       d="m 5.2680139,290.44742 a 0.09449445,0.11811796 0 0 1 -0.096348,0.11513 0.09449445,0.11811796 0 0 1 -0.092601,-0.11984 0.09449445,0.11811796 0 0 1 0.095391,-0.11636 0.09449445,0.11811796 0 0 1 0.093587,0.11863" />
    <path
       style="opacity:1;fill:#00ffff;fill-opacity:1;stroke:#000000;stroke-width:0;stroke-linejoin:miter;stroke-miterlimit:4;stroke-dasharray:none;stroke-opacity:0.89054727"
       id="path3715-4-0"
       sodipodi:type="arc"
       sodipodi:cx="0.28348216"
       sodipodi:cy="296.71649"
       sodipodi:rx="0.094494455"
       sodipodi:ry="0.11811796"
       sodipodi:start="0.025103943"
       sodipodi:end="0.0044259805"
       sodipodi:open="true"
       d="m 0.37794684,296.71946 a 0.09449445,0.11811796 0 0 1 -0.0963483,0.11513 0.09449445,0.11811796 0 0 1 -0.0926006,-0.11984 0.09449445,0.11811796 0 0 1 0.0953909,-0.11637 0.09449445,0.11811796 0 0 1 0.0935868,0.11863" />
    <path
       style="opacity:1;fill:#00ffff;fill-opacity:1;stroke:#000000;stroke-width:0;stroke-linejoin:miter;stroke-miterlimit:4;stroke-dasharray:none;stroke-opacity:0.89054727"
       id="path3715-4-0-4"
       sodipodi:type="arc"
       sodipodi:cx="12.922061"
       sodipodi:cy="284.17242"
       sodipodi:rx="0.094494455"
       sodipodi:ry="0.11811796"
       sodipodi:start="0.025103943"
       sodipodi:end="0.0044259805"
       sodipodi:open="true"
       d="m 13.016526,284.17539 a 0.09449445,0.11811796 0 0 1 -0.09635,0.11513 0.09449445,0.11811796 0 0 1 -0.0926,-0.11984 0.09449445,0.11811796 0 0 1 0.09539,-0.11637 0.09449445,0.11811796 0 0 1 0.09359,0.11864" />
    <path
       style="opacity:1;fill:#00ffff;fill-opacity:1;stroke:#000000;stroke-width:0;stroke-linejoin:miter;stroke-miterlimit:4;stroke-dasharray:none;stroke-opacity:0.89054727"
       id="path3715-4-0-4-0"
       sodipodi:type="arc"
       sodipodi:cx="10.134487"
       sodipodi:cy="294.54315"
       sodipodi:rx="0.094494455"
       sodipodi:ry="0.11811796"
       sodipodi:start="0.025103943"
       sodipodi:end="0.0044259805"
       sodipodi:open="true"
       d="m 10.228952,294.54612 a 0.09449445,0.11811796 0 0 1 -0.09635,0.11513 0.09449445,0.11811796 0 0 1 -0.0926,-0.11984 0.09449445,0.11811796 0 0 1 0.09539,-0.11637 0.09449445,0.11811796 0 0 1 0.09359,0.11863" />
    <path
       style="opacity:1;fill:#00ffff;fill-opacity:1;stroke:#000000;stroke-width:0;stroke-linejoin:miter;stroke-miterlimit:4;stroke-dasharray:none;stroke-opacity:0.89054727"
       id="path3715-4-0-4-0-4"
       sodipodi:type="arc"
       sodipodi:cx="6.8508186"
       sodipodi:cy="287.88132"
       sodipodi:rx="0.094494455"
       sodipodi:ry="0.11811796"
       sodipodi:start="0.025103943"
       sodipodi:end="0.0044259805"
       sodipodi:open="true"
       d="m 6.9452833,287.88428 a 0.09449445,0.11811796 0 0 1 -0.096348,0.11513 0.09449445,0.11811796 0 0 1 -0.092601,-0.11984 0.09449445,0.11811796 0 0 1 0.095391,-0.11637 0.09449445,0.11811796 0 0 1 0.093587,0.11864" />
  </g>
</svg>
