<?xml version="1.0" encoding="UTF-8" standalone="no"?>
<!-- Created with Inkscape (http://www.inkscape.org/) -->

<svg
   xmlns:dc="http://purl.org/dc/elements/1.1/"
   xmlns:cc="http://creativecommons.org/ns#"
   xmlns:rdf="http://www.w3.org/1999/02/22-rdf-syntax-ns#"
   xmlns:svg="http://www.w3.org/2000/svg"
   xmlns="http://www.w3.org/2000/svg"
   xmlns:sodipodi="http://sodipodi.sourceforge.net/DTD/sodipodi-0.dtd"
   xmlns:inkscape="http://www.inkscape.org/namespaces/inkscape"
   width="50"
   height="50"
   viewBox="0 0 13.229167 13.229167"
   version="1.1"
   id="svg8"
   inkscape:version="0.92.3 (2405546, 2018-03-11)"
   sodipodi:docname="greenKey.svg"
   inkscape:export-filename="C:\Users\Administrator\Desktop\Vince\Training\Dungeon\images\yellowKey.png"
   inkscape:export-xdpi="96"
   inkscape:export-ydpi="96">
  <defs
     id="defs2" />
  <sodipodi:namedview
     id="base"
     pagecolor="#ffffff"
     bordercolor="#666666"
     borderopacity="1.0"
     inkscape:pageopacity="0.0"
     inkscape:pageshadow="2"
     inkscape:zoom="15.839192"
     inkscape:cx="13.929863"
     inkscape:cy="25.299658"
     inkscape:document-units="mm"
     inkscape:current-layer="layer1"
     showgrid="false"
     units="px"
     inkscape:pagecheckerboard="true"
     inkscape:window-width="1920"
     inkscape:window-height="1003"
     inkscape:window-x="-9"
     inkscape:window-y="-9"
     inkscape:window-maximized="1" />
  <metadata
     id="metadata5">
    <rdf:RDF>
      <cc:Work
         rdf:about="">
        <dc:format>image/svg+xml</dc:format>
        <dc:type
           rdf:resource="http://purl.org/dc/dcmitype/StillImage" />
        <dc:title></dc:title>
      </cc:Work>
    </rdf:RDF>
  </metadata>
  <g
     inkscape:groupmode="layer"
     id="layer2"
     inkscape:label="Background">
    <rect
       style="fill:#000000;fill-opacity:1;stroke-width:0.1414327"
       id="rect3760"
       width="0.51783466"
       height="5.4623213"
       x="1.8347682"
       y="4.0292087" />
    <rect
       style="fill:#000000;fill-opacity:1;stroke-width:0.11260702"
       id="rect3760-8-0"
       width="0.56794769"
       height="3.1571214"
       x="10.003192"
       y="6.5683231" />
    <rect
       style="fill:#000000;fill-opacity:1;stroke-width:0.08762939"
       id="rect3760-8-0-6"
       width="0.43297797"
       height="2.5078549"
       x="12.130631"
       y="5.7672162"
       transform="matrix(0.99992588,0.01217533,-0.00465967,0.99998914,0,0)" />
    <rect
       style="fill:#000000;fill-opacity:1;stroke-width:0.18447189"
       id="rect3858"
       width="10.306581"
       height="0.58465201"
       x="1.8347356"
       y="6.5678802" />
    <rect
       style="fill:#000000;fill-opacity:1;stroke-width:0.09568451"
       id="rect3858-0"
       width="2.7729206"
       height="0.58465201"
       x="1.8347682"
       y="8.9068775" />
    <rect
       style="fill:#000000;fill-opacity:1;stroke-width:0.1414327"
       id="rect3760-6"
       width="0.51783466"
       height="5.4623218"
       x="4.0898542"
       y="4.0292077" />
    <rect
       style="fill:#000000;fill-opacity:1;stroke-width:0.10397182"
       id="rect3858-1"
       width="3.2740512"
       height="0.58465201"
       x="1.0774306"
       y="6.1715808" />
    <rect
       style="fill:#000000;fill-opacity:1;stroke-width:0.07436913"
       id="rect3858-9"
       width="0.93544298"
       height="0.58465195"
       x="9.6356964"
       y="9.1407928" />
    <rect
       style="fill:#000000;fill-opacity:1;stroke-width:0.05995831"
       id="rect3858-9-4"
       width="0.81851256"
       height="0.43431285"
       x="11.702534"
       y="8.427947" />
    <rect
       style="fill:#000000;fill-opacity:1;stroke-width:0.09568452"
       id="rect3858-0-3"
       width="2.7729208"
       height="0.58465201"
       x="1.8347318"
       y="4.02882" />
    <path
       style="fill:#008000;fill-opacity:1;stroke-width:0.06313454"
       d="m 34.776886,29.972075 v -5.145464 h -9.47018 -9.47018 l 8e-6,4.593037 7e-6,4.593037 -3.046249,-0.01528 c -1.675437,-0.0084 -4.6966437,-0.03305 -6.7137936,-0.05478 L 2.4089532,33.903125 2.3673442,31.91152 C 2.3444592,30.816137 2.3257352,25.719788 2.3257352,20.5863 v -9.333615 h 6.7553951 6.7553947 v 4.798224 4.798225 H 30.767843 45.69916 v 5.461137 5.461137 H 44.278634 42.858107 V 28.29901 24.826611 h -2.525382 -2.525381 v 5.145464 5.145465 H 36.292115 34.776886 Z M 11.227705,27.415126 V 24.826611 H 9.081131 6.9345569 v 2.588515 2.588516 h 2.1465741 2.146574 z m 0,-9.375478 V 15.230161 H 9.1809966 c -1.1256899,0 -2.0916483,-0.01724 -2.1465744,-0.03832 -0.090155,-0.03459 -0.099865,0.238596 -0.099865,2.809487 v 2.847809 h 2.1465741 2.1465737 z"
       id="path3950"
       inkscape:connector-curvature="0"
       transform="scale(0.26458333)" />
    <path
       style="fill:#008000;fill-opacity:1;stroke-width:0.06313454"
       d="m 34.776886,29.972075 v -5.145464 h -9.47018 -9.47018 l 8e-6,4.593037 7e-6,4.593037 -3.046249,-0.01528 c -1.675437,-0.0084 -4.6966543,-0.03305 -6.7138171,-0.05478 l -3.6675687,-0.0395 -0.041585,-1.896891 c -0.022872,-1.04329 -0.041585,-6.139639 -0.041585,-11.325219 v -9.428329 h 6.7553951 6.7553947 v 4.798224 4.798225 h 14.931318 14.931317 v 5.461137 5.461137 H 44.278634 42.858107 V 28.29901 24.826611 h -2.525382 -2.525381 v 5.145464 5.145465 H 36.292115 34.776886 Z M 11.227705,27.415126 V 24.826611 H 9.081131 6.9345569 v 2.588515 2.588516 h 2.1465741 2.146574 z m 0,-9.373831 v -2.807841 l -2.1203271,-0.01743 c -1.1661798,-0.0096 -2.1321382,-0.0056 -2.1465741,0.0089 -0.014436,0.01447 -0.026247,1.28584 -0.026247,2.825271 v 2.798964 h 2.1465741 2.1465741 z"
       id="path3952"
       inkscape:connector-curvature="0"
       transform="scale(0.26458333)" />
    <path
       style="fill:#008080;fill-opacity:1;stroke-width:0.06313454"
       d="m 34.776886,29.972075 v -5.145464 h -9.47018 -9.47018 l 1e-5,4.593037 1.1e-5,4.593037 -3.172521,-0.01518 c -1.744886,-0.0084 -4.7661113,-0.03299 -6.7138334,-0.05476 l -3.5413128,-0.03958 -0.041456,-1.839273 c -0.0228,-1.011599 -0.041508,-6.107955 -0.041572,-11.325236 l -1.164e-4,-9.485963 h 6.7553951 6.7553955 v 4.798224 4.798225 H 30.767843 45.69916 v 5.461137 5.461137 H 44.278634 42.858107 V 28.29901 24.826611 h -2.525382 -2.525381 v 5.145464 5.145465 H 36.292115 34.776886 Z M 11.227705,27.415126 V 24.826611 H 9.081131 6.9345569 v 2.588515 2.588516 h 2.1465741 2.146574 z m 0,-9.375478 V 15.230161 H 9.081131 6.9345569 v 2.809487 2.809487 h 2.1465741 2.146574 z"
       id="path3954"
       inkscape:connector-curvature="0"
       transform="scale(0.26458333)" />
    <path
       style="fill:#008080;fill-opacity:1;stroke-width:0.06313454"
       d="m 34.776886,29.972075 v -5.145464 h -9.47018 -9.47018 l 1.5e-5,4.593037 1.6e-5,4.593037 -3.551333,-0.01493 c -1.953233,-0.0082 -4.9744783,-0.03283 -6.7138783,-0.05471 L 2.4088004,33.903269 2.3672681,32.195737 C 2.3444254,31.256594 2.3257359,26.160213 2.3257359,20.870445 v -9.617759 h 6.7553951 6.755395 v 4.798224 4.798225 h 14.931318 14.931317 v 5.461137 5.461137 H 44.278634 42.858107 V 28.29901 24.826611 h -2.525382 -2.525381 v 5.145464 5.145465 H 36.292115 34.776886 Z M 11.227705,27.415126 V 24.826611 H 9.081131 6.9345569 v 2.588515 2.588516 h 2.1465741 2.146574 z m 0,-9.375478 V 15.230161 H 9.081131 6.9345569 v 2.809487 2.809487 h 2.1465741 2.146574 z"
       id="path3956"
       inkscape:connector-curvature="0"
       transform="scale(0.26458333)" />
    <path
       style="fill:#008080;fill-opacity:1;stroke-width:0.06313454"
       d="m 34.776886,29.972075 v -5.145464 h -9.47018 -9.47018 l 1.5e-5,4.593037 1.6e-5,4.593037 -3.551333,-0.01493 c -1.953233,-0.0082 -4.9744927,-0.03283 -6.7139102,-0.05471 l -3.1625773,-0.03977 -0.0415,-1.612814 c -0.022825,-0.887048 -0.0415,-5.983429 -0.0415,-11.325291 v -9.712477 h 6.7553951 6.7553954 v 4.798224 4.798225 h 14.931318 14.931317 v 5.461137 5.461137 H 44.278634 42.858107 V 28.29901 24.826611 h -2.525382 -2.525381 v 5.145464 5.145465 H 36.292115 34.776886 Z M 11.227705,27.415126 V 24.826611 H 9.081131 6.9345569 v 2.588515 2.588516 h 2.1465741 2.146574 z m 0,-9.375478 V 15.230161 H 9.081131 6.9345569 v 2.809487 2.809487 h 2.1465741 2.146574 z"
       id="path3958"
       inkscape:connector-curvature="0"
       transform="scale(0.26458333)" />
    <path
       style="fill:#008080;fill-opacity:1;stroke-width:0.06313454"
       d="m 34.776886,29.972075 v -5.145464 h -9.47018 -9.47018 l 1.5e-5,4.593037 1.6e-5,4.593037 -3.551333,-0.01493 c -1.953233,-0.0082 -4.9744927,-0.03283 -6.7139102,-0.05471 l -3.1625773,-0.03977 -0.0415,-1.612814 c -0.022825,-0.887048 -0.0415,-5.983429 -0.0415,-11.325291 v -9.712477 h 6.7553951 6.7553954 v 4.798224 4.798225 h 14.931318 14.931317 v 5.461137 5.461137 H 44.278634 42.858107 V 28.29901 24.826611 h -2.525382 -2.525381 v 5.145464 5.145465 H 36.292115 34.776886 Z M 11.227705,27.415126 V 24.826611 H 9.081131 6.9345569 v 2.588515 2.588516 h 2.1465741 2.146574 z m 0,-9.375478 V 15.230161 H 9.081131 6.9345569 v 2.809487 2.809487 h 2.1465741 2.146574 z"
       id="path3960"
       inkscape:connector-curvature="0"
       transform="scale(0.26458333)" />
    <path
       style="fill:#008080;fill-opacity:1;stroke-width:0.06313454"
       d="m 34.776886,29.972075 v -5.145464 h -9.47018 -9.47018 l 1.6e-5,4.593037 1.6e-5,4.593037 -3.614468,-0.0149 c -1.987958,-0.0082 -5.0092332,-0.03281 -6.7139463,-0.0547 l -3.0994783,-0.0398 -0.041465,-1.518104 C 2.344395,31.550226 2.3257359,26.453841 2.3257359,21.059882 v -9.807196 h 6.7553951 6.755395 v 4.798224 4.798225 h 14.931318 14.931317 v 5.461137 5.461137 H 44.278634 42.858107 V 28.29901 24.826611 h -2.525382 -2.525381 v 5.145464 5.145465 H 36.292115 34.776886 Z M 11.227705,27.415126 V 24.826611 H 9.081131 6.9345569 v 2.588515 2.588516 h 2.1465741 2.146574 z m 0,-9.375478 V 15.230161 H 9.081131 6.9345569 v 2.809487 2.809487 h 2.1465741 2.146574 z"
       id="path3962"
       inkscape:connector-curvature="0"
       transform="scale(0.26458333)" />
  </g>
  <g
     inkscape:label="Layer 1"
     inkscape:groupmode="layer"
     id="layer1"
     transform="translate(0,-283.77083)">
    <path
       style="fill:#ffff00;fill-opacity:1;stroke-width:0.01670435"
       d="m 9.1972709,291.70394 -0.0043,-1.35723 -2.501476,-0.004 -2.5014759,-0.004 v 1.21961 1.2196 l -1.7831888,-0.0108 c -0.9807539,-0.006 -1.78480795,-0.012 -1.78678685,-0.0135 -0.00198,-0.001 -0.0068,-1.35348 -0.010717,-3.00446 l -0.00712,-3.0018 H 2.3961121 4.1900177 v 1.26953 1.26953 h 3.9505778 3.9505775 v 1.45328 1.45328 h -0.375679 -0.375706 l -0.0043,-0.92292 -0.0043,-0.92291 -0.663998,-0.004 -0.663998,-0.004 v 1.3616 1.36159 H 9.6023869 9.2015809 Z m -6.230632,-0.67653 -0.00436,-0.6807 -0.5637717,-0.004 -0.5637716,-0.004 v 0.6851 0.6851 h 0.5681351 0.5681349 z m -1.38e-5,-2.48059 -0.00435,-0.73917 -0.5637717,-0.004 -0.5637716,-0.004 v 0.74357 0.74357 h 0.5681217 0.5681214 z"
       id="path3758"
       inkscape:connector-curvature="0"
       inkscape:export-filename="C:\Users\Administrator\Desktop\Vince\Training\Dungeon\images\redKey.png"
       inkscape:export-xdpi="96"
       inkscape:export-ydpi="96" />
  </g>
</svg>
